# xmcd
#
# Track frame offsets: 
#        150
#        17382
#        30704
#        44106
#        57876
#        68740
#        83494
#        101806
#        111837
#        130863
#        143290
#        161223
#        172977
#        201908
#        219404
#        237549
#
# Disc length: 3335 seconds
#
# Revision: 0
# Processed by: cddbd v1.5.1PL0 Copyright (c) Steve Scherf et al.
# Submitted via: ExactAudioCopy v0.95a5
#
DISCID=da0d0510
DTITLE=Various Artist - The Big Country
DYEAR=2002
DGENRE=Country
TTITLE0=Johnny Cash - (Ghost) Riders in the Sky
TTITLE1=Tanya Tucker - Delta Dawn
TTITLE2=Charlie Rich - Behind Closed Doors
TTITLE3=Merle Haggard - That's the Way Love Goes
TTITLE4=Tammy Wynette - Singing My Song
TTITLE5=The Byrds - From a Distance
TTITLE6=Dolly Parton - The River Unbroken
TTITLE7=Barbara Mandrell - Do Right Woman - Do Right Man
TTITLE8=Exile - I Can't Get Close Enough
TTITLE9=Joe Diffie - New Way (To Light Up An Old Flame)
TTITLE10=Colin Raye - Not That Different
TTITLE11=Patty Loveless - Wine, Women and Song
TTITLE12=Chet Atkins - Why Worry
TTITLE13=Dr. Hook - Sylvia's Mother
TTITLE14=Billy Swan - I can Help
TTITLE15=Roy Orbison - Crying
EXTD=
EXTT0=
EXTT1=
EXTT2=
EXTT3=
EXTT4=
EXTT5=
EXTT6=
EXTT7=
EXTT8=
EXTT9=
EXTT10=
EXTT11=
EXTT12=
EXTT13=
EXTT14=
EXTT15=
PLAYORDER=
